# xmcd CD database file
#
# Track frame offsets:
#	150
#	8910
#	24671
#	32613
#	48799
#	61377
#	72586
#	92245
#
# Disc length: 1324 seconds
#
# Revision: 0
# Processed by: cddbd v1.5.2PL0 Copyright (c) Steve Scherf et al.
# Submitted via: CDex 1.50
#
DISCID=64052a08
DTITLE=m´adam - Piste 1
DYEAR=1900
DGENRE=Jazz
TTITLE0=Le contrôleur
TTITLE1=After youv've Gone
TTITLE2=Tchavatch
TTITLE3=Madeleine
TTITLE4=Bal Kreslarzy
TTITLE5=Sirba de violon
TTITLE6=Unlucky man
TTITLE7=Motherless child
EXTD=
EXTT0=
EXTT1=
EXTT2=
EXTT3=
EXTT4=
EXTT5=
EXTT6=
EXTT7=
PLAYORDER=
